<?xml version="1.0" encoding="utf-8"?>
<!-- Generator: Adobe Illustrator 26.0.0, SVG Export Plug-In . SVG Version: 6.00 Build 0)  -->
<svg version="1.1" id="Layer_1" xmlns="http://www.w3.org/2000/svg" xmlns:xlink="http://www.w3.org/1999/xlink" x="0px" y="0px"
	 viewBox="0 0 612 792" style="enable-background:new 0 0 612 792;" xml:space="preserve">
<style type="text/css">
	.st0{fill:#4C4C5B;}
	.st1{fill:#5F6BB2;}
	.st2{fill:#E6E7E8;}
	.st3{fill:#FFE08C;}
	.st4{fill:none;}
</style>
<circle class="st0" cx="320.61" cy="334.39" r="206.47"/>
<path class="st1" d="M469.35,334.42c-0.06,82.41-66.68,148.76-149.3,148.69c-81.7-0.07-148.22-67-148.16-149.08
	c0.06-81.88,66.87-148.48,148.82-148.37C403,185.78,469.4,252.24,469.35,334.42z M456.75,362.47c9.28-38.57,0.19-98.71-51.05-138.41
	c-49.25-38.16-118.38-38.73-168.05-1.55c-52.21,39.08-62.69,99.71-53.14,139.87c0.72-1.05,1.33-1.89,1.88-2.76
	c20.24-31.92,40.46-63.84,60.7-95.76c2.97-4.68,6.59-4.69,9.54-0.05c6.72,10.59,13.42,21.18,20.14,31.77
	c0.51,0.8,1.07,1.57,1.76,2.57c0.73-1.09,1.29-1.89,1.81-2.71c11.8-18.6,23.59-37.21,35.39-55.82c3.16-4.98,6.68-5.02,9.8-0.1
	c11.75,18.53,23.49,37.06,35.24,55.6c0.6,0.94,1.24,1.86,2.04,3.04c0.74-1.11,1.24-1.84,1.72-2.58
	c6.72-10.59,13.43-21.17,20.15-31.76c2.95-4.66,6.59-4.65,9.55,0.02c16.25,25.65,32.49,51.3,48.74,76.94
	C447.45,347.87,451.97,354.96,456.75,362.47z M312,473.14c-0.65-1-1.05-1.68-1.51-2.31c-18.92-25.9-37.84-51.8-56.75-77.7
	c-3.12-4.27-6.4-8.43-9.23-12.88c-0.84-1.32-1-3.78-0.32-5.13c0.63-1.23,2.75-2.03,4.34-2.34c1.01-0.2,2.32,0.74,3.39,1.36
	c22.09,12.77,44.18,25.56,66.22,38.41c1.74,1.01,2.96,1.12,4.78,0c19.2-11.86,38.47-23.61,57.71-35.39
	c3.36-2.06,6.61-4.34,10.14-6.06c1.37-0.67,3.68-0.64,4.95,0.11c1.14,0.67,1.85,2.73,1.99,4.24c0.1,1.13-0.84,2.49-1.59,3.55
	c-20.05,28.17-40.14,56.32-60.22,84.47c-2.21,3.1-4.4,6.23-7.01,9.92c28.19-1.86,53.04-10.91,75.04-27.43
	c25-18.77,41.84-43.28,50.67-73.22c-20.15-8.48-40.04-16.85-59.93-25.22c0.31,1.55,0.96,2.6,1.62,3.65
	c2.66,4.21,2.12,6.41-2.22,8.97c-23.28,13.76-46.57,27.49-69.83,41.29c-2.53,1.5-4.79,1.48-7.27-0.04
	c-4.58-2.81-9.24-5.48-13.87-8.21c-18.73-11.07-37.47-22.13-56.19-33.21c-4.01-2.38-4.52-4.6-2.04-8.6c0.71-1.14,1.38-2.3,2.06-3.46
	c-0.14-0.12-0.27-0.24-0.41-0.36c-19.91,8.38-39.82,16.76-59.72,25.14C203.21,431.87,257.69,470.91,312,473.14z M380.2,344.5
	c0.13-0.15,0.25-0.31,0.38-0.46c-14.95-23.58-29.89-47.16-45.01-71.01c-0.91,1.26-1.55,2.11-2.16,2.98c-2.4,3.41-4.48,3.5-7.22,0.27
	c-1.78-2.09-3.54-4.19-5.45-6.45c-2.09,2.61-3.88,4.95-5.78,7.2c-1.82,2.16-4.13,2.09-5.9-0.1c-1.03-1.28-1.97-2.64-3.14-4.21
	c-15.22,24.02-30.22,47.68-45.21,71.35c1.17,0.09,1.9-0.19,2.63-0.49c17.81-7.5,35.65-14.95,53.42-22.55
	c2.8-1.2,5.17-1.12,7.93,0.06c15.96,6.84,31.98,13.53,47.98,20.26C375.17,342.41,377.69,343.45,380.2,344.5z M251.96,291.82
	c-1.01,1.24-1.78,2.19-2.55,3.14c-0.79,0.98-1.52,2-2.35,2.93c-1.86,2.07-4.16,1.99-5.92-0.18c-0.76-0.94-1.47-1.91-2.38-3.09
	c-13.19,20.82-26.17,41.3-39.15,61.79c1.31,0.04,2.22-0.27,3.1-0.64c15.08-6.35,30.14-12.75,45.25-19.01c1.71-0.71,3.77-0.56,5.62-1
	c0.74-0.17,1.59-0.71,1.99-1.34c5.51-8.59,10.97-17.2,16.37-25.86c0.39-0.63,0.61-1.81,0.29-2.35c-2.23-3.75-4.62-7.4-7.09-11.28
	c-0.67,0.87-1.17,1.48-1.64,2.12c-2.24,3.08-4.42,3.17-6.91,0.26C255.15,295.61,253.72,293.89,251.96,291.82z M402.76,294.98
	c-0.6,0.71-1.02,1.15-1.38,1.64c-2.72,3.7-4.66,3.77-7.58,0.27c-1.36-1.63-2.75-3.23-4.29-5.05c-1.37,1.71-2.55,3.15-3.71,4.61
	c-3.24,4.08-5,4.06-8.06-0.05c-0.39-0.53-0.87-0.99-1.47-1.66c-2.35,3.7-4.49,7.21-6.78,10.62c-0.88,1.31-0.86,2.24,0,3.58
	c5.15,7.97,10.21,15.99,15.24,24.04c1.13,1.81,2,3.49,4.7,2.6c0.84-0.28,2.07,0.37,3.04,0.78c12.62,5.29,25.23,10.61,37.84,15.92
	c3.67,1.55,7.35,3.07,11.03,4.61c0.12-0.15,0.24-0.3,0.37-0.45C428.77,336.03,415.83,315.61,402.76,294.98z M315.82,331.73
	c-19.21,8.1-37.98,16.02-57.26,24.15c19.37,11.44,38.14,22.52,57.26,33.81C315.82,370.16,315.82,351.2,315.82,331.73z
	 M325.61,389.62c19.12-11.29,37.85-22.36,57.13-33.75c-19.34-8.15-38.08-16.05-57.13-24.08
	C325.61,351.13,325.61,370.07,325.61,389.62z M315.52,461.68c0.26-0.71,0.42-0.94,0.42-1.17c0.02-12.28,0.06-24.55-0.05-36.83
	c-0.01-0.87-0.96-2.06-1.8-2.55c-15.22-8.91-30.49-17.74-45.75-26.57c-0.54-0.31-1.16-0.48-1.74-0.71c-0.1,0.15-0.2,0.29-0.3,0.44
	C282.63,416.65,298.97,439.02,315.52,461.68z M374.79,392.69c-0.15-0.14-0.3-0.28-0.45-0.42c-0.31,0.13-0.64,0.23-0.93,0.4
	c-15.49,9.48-31,18.93-46.43,28.51c-0.82,0.51-1.48,1.98-1.49,3c-0.1,11.55-0.07,23.1-0.06,34.66c0,0.66,0.13,1.32,0.27,2.67
	C342.33,438.2,358.56,415.44,374.79,392.69z M312.37,269.08c1.53-1.92,2.93-3.66,4.31-5.41c2.99-3.77,4.74-3.82,7.8-0.23
	c1.61,1.89,3.23,3.77,4.86,5.67c2.21-2.4,2.22-2.4,0.69-4.83c-2.62-4.16-5.25-8.32-7.89-12.46c-0.44-0.69-0.97-1.33-1.6-2.19
	c-3.19,5.03-6.03,9.8-9.17,14.35C309.91,266.12,310.27,267.48,312.37,269.08z M389.44,273.98c-2.96,4.65-5.7,8.83-8.25,13.11
	c-0.39,0.65,0.07,1.8,0.14,2.72c1.43-0.81,2.12-1.62,2.78-2.44c0.68-0.83,1.31-1.7,2-2.52c2.3-2.73,4.28-2.76,6.61-0.08
	c1.5,1.72,2.96,3.49,4.44,5.23c0.28-0.08,0.55-0.17,0.83-0.25c-0.04-0.82,0.21-1.82-0.17-2.44
	C395.19,282.97,392.43,278.71,389.44,273.98z M251.87,273.98c-2.99,4.72-5.76,8.96-8.35,13.3c-0.34,0.58,0.18,1.68,0.31,2.53
	c2.09-1.67,3.39-3.36,4.74-4.99c2.24-2.71,4.32-2.71,6.62-0.04c1.49,1.73,2.95,3.48,4.83,5.69c0.29-1.27,0.82-2.19,0.55-2.63
	C257.81,283.29,254.93,278.82,251.87,273.98z"/>
<path class="st2" d="M312.37,269.08c-2.09-1.61-2.45-2.97-0.99-5.09c3.14-4.56,5.98-9.32,9.17-14.35c0.63,0.86,1.16,1.5,1.6,2.19
	c2.64,4.15,5.27,8.3,7.89,12.46c1.53,2.42,1.52,2.43-0.69,4.83c-1.63-1.9-3.25-3.78-4.86-5.67c-3.06-3.59-4.82-3.54-7.8,0.23
	C315.29,265.42,313.9,267.16,312.37,269.08z"/>
<path class="st2" d="M389.44,273.98c3,4.73,5.76,8.99,8.39,13.32c0.38,0.62,0.13,1.62,0.17,2.44c-0.28,0.08-0.55,0.17-0.83,0.25
	c-1.48-1.75-2.94-3.51-4.44-5.23c-2.33-2.68-4.32-2.65-6.61,0.08c-0.69,0.82-1.32,1.69-2,2.52c-0.67,0.82-1.36,1.63-2.78,2.44
	c-0.07-0.92-0.53-2.07-0.14-2.72C383.74,282.81,386.48,278.64,389.44,273.98z"/>
<path class="st2" d="M251.87,273.98c3.06,4.84,5.94,9.31,8.69,13.85c0.27,0.44-0.26,1.36-0.55,2.63c-1.88-2.21-3.34-3.96-4.83-5.69
	c-2.3-2.67-4.38-2.66-6.62,0.04c-1.36,1.64-2.65,3.33-4.74,4.99c-0.12-0.86-0.65-1.96-0.31-2.53
	C246.11,282.94,248.87,278.7,251.87,273.98z"/>
<path class="st3" d="M466.81,221.24c-2.63-14.39-15.99-9.96-19.97-14.64c-4.53-5.32-15.84-8.51-19.2-13.4
	c-0.63-0.92-3.74-10.71-8.03-11.81c-3.97-0.27-4.58-2.38-4.72-6.18c-0.25-7.15-4.38-12.11-8.92-16.91c-0.76-0.8-1.66-2.49-2.63,0.19
	c-0.54,1.47-2.37,0.81-3.6,0.21c-3.08-1.51-4.98-4.45-5.92-7.28c-0.99-2.98-9.32-1.55-11.55-4.91c-9.18-9.7-13.12-8.24-24.26-15.24
	c4.25,0.31,4.25,0.31,13.37,2.04c13.65,3.01,24.2,7.08,34.16,11.93c9.6,4.67,19.03,9.09,30.99,17.5
	c16.64,11.89,19.42,13.56,31.44,25.98c22.66,23.4,36.29,47.97,41.94,60.63c8.19,18.37,13.83,37.55,16.48,57.49
	c2.47,18.61,1.7,37.17-0.75,55.82c-2.28,17.35-7.04,33.94-12.54,50.41c-3.19,9.55-8.53,18.02-13.72,26.55
	c-8.29,13.62-17.96,26.25-28.92,37.78c-12.38,13.02-24.78,26.26-41.17,34.42c-22.86,11.39-46.07,21.89-71.49,26.54
	c-18.8,3.44-37.67,4.35-56.68,2.88c-16.92-1.31-33.39-4.92-49.35-10.59c-8.33-2.96-16.53-6.39-24.18-10.96
	c-2.85-1.7-5.98-2.91-8.94-4.44c-1.51-0.78-3.13-1.52-3.78-3.29c0.68-0.75,1.38-0.53,2.03-0.15c8.32,4.9,17.33,8.15,26.28,11.69
	c15.56,6.14,31.32,6.63,46.98,1.71c4.24-1.33,9.83-2.51,12.3-7.65c0.42-0.88,1.22-0.4,1.92-0.08c5.31,2.51,8.13,1.21,9.13-4.54
	c0.37-2.1,0.94-2.62,3.08-2.33c2.26,0.3,4.52-0.04,6.04-2.38c1.46-2.23,0.49-3.59-1.04-5.11c-0.69-0.69-1.1-2.4,0.08-2.32
	c1.75,0.12,4.02-1.23,5.34,1.04c0.36,0.62,0.4,1.41,0.63,2.1c1.35,4.02,3.87,4.94,7.15,2.38c1.6-1.25,3.34-1.36,5.16-1.62
	c3.59-0.52,6.56-1.62,7.37-5.96c0.39-2.11,2.45-3.49,4.43-4.61c2.19-1.24,3.24-2.8,2.56-5.75c-1.37-5.95,1.91-10.1,7.48-10.16
	c0.95-0.01,2.19-0.3,2.47,1c0.33,1.48-1.02,1.38-1.92,1.62c-0.23,0.06-0.5,0.01-0.73,0.07c-3.63,0.99-6.08,3.82-5.28,6.51
	c0.79,2.66,3.49,2.5,5.52,2.64c3.36,0.23,5.48-2,5.79-5.43c0.03-0.37,0.12-0.74,0.1-1.1c-0.29-5.18-0.3-5.18,4.77-4.46
	c5.63,0.8,10.04-2.71,9.82-8.51c-0.15-4.03,1.45-6.75,4.16-9.31c4.88-4.63,6.39-11.01,8.3-17.09c0.64-2.04,1.35-2.53,3.28-2.13
	c3.52,0.73,5.51-0.98,7.48-3.92c3.97-5.92,3.2-12.11,2.33-18.51c-0.69-5.06-0.18-5.58,4.56-5.62c8.99-0.08,15.54-4.01,19.94-11.97
	c2.59-4.69,4.49-9.47,5.45-14.75c1.41-7.75-0.93-13.77-7.61-18.03c0.31-0.28,0.53-0.61,0.66-0.58c6.89,1.92,11.75-1.6,12.53-9.04
	c0.23-2.14-0.3-4.17-0.64-6.23c-0.26-1.54-2.13-3.2-0.91-4.48c2.23-2.34,2.45-6.04,5.55-7.69c0.74-0.39,1.41-1.34,2.25-0.57
	c0.88,0.8,0.5,1.72-0.2,2.59c-0.85,1.05-1.53,2.23-2.36,3.29c-1.78,2.26-0.9,4.6,0.81,5.88c1.63,1.22,3.88,0.23,5.21-1.45
	c2.13-2.68,3.38-5.7,2.89-9.25c-0.27-1.95,0.1-3.31,2.24-4.43c4.94-2.6,6.65-8.41,5.32-13.87c-0.79-3.23-0.83-6.77-0.55-10.11
	c0.27-3.12,1.58-6.14-0.05-9.28c-0.36-0.69-0.45-1.89,0.49-2.31c1.01-0.45,1.4,0.61,1.96,1.26c0.83,0.97,1.19,2.87,2.87,2.42
	c1.52-0.41,2.42-2.08,2.42-3.48c-0.01-4.12,1.9-7.37,3.87-10.75c1.48-2.54,1.21-5.28-1.23-7.35c-1.41-1.2-0.94-2.07,0-3.39
	c2.84-3.98,3.33-8.42,1.75-13.03c-0.39-1.14-0.87-2.64-1.77-3.16c-5.1-2.95-3.28-7.46-2.56-11.48c-0.16-10.9-0.16-10.9-1.42-17.84"
	/>
<path class="st3" d="M406.42,384.4c3.4-7.21,9.97-11.14,15.95-15.66c0.88-0.66,1.98-1.44,2.85-0.1c0.81,1.25-0.47,1.71-1.22,2.23
	c-7.32,5.03-12.67,11.71-15.76,19.98c-2,5.35-2.64,10.99-0.92,16.65c0.25,0.84,1.41,1.87,0.07,2.47c-1.1,0.5-2.38,0.28-3.17-1.08
	c-2.17-3.79-3-7.87-2.32-12.12C402.62,392.39,404.32,388.29,406.42,384.4z"/>
<path class="st3" d="M308.08,510.59c-2.91-1.67-4.22-5.38-2.87-7.98c1.41-2.72,6.51-4.5,9.06-3.02c1.86,1.08,1.08,2.33-0.37,2.96
	c-2.92,1.26-3.69,3.34-2.94,6.26c0.22,0.84,0.36,1.8-0.58,2.3C309.5,511.58,308.76,510.87,308.08,510.59z"/>
<path class="st3" d="M462.89,265.34c0.41-0.75,0.79-1.53,1.25-2.25c0.59-0.92,1.54-1.48,2.5-0.91c1.17,0.68,0.43,1.66,0.02,2.55
	c-1.6,3.47-3.27,6.92-1,10.79c0.51,0.86,0.52,2.09-0.57,2.56c-1.07,0.46-1.78-0.44-2.33-1.3
	C460.3,272.93,460.66,269.12,462.89,265.34z"/>
<path class="st3" d="M427.71,324.42c0.73,0.72,1.03,1.44-0.03,2.1c-3.99,2.49-5.53,6.07-4.83,10.68c0.09,0.63,0.03,1.24-0.79,1.39
	c-0.98,0.18-1.26-0.53-1.56-1.21c-1.51-3.47,1.61-11.29,5.13-12.87C426.3,324.21,427,323.95,427.71,324.42z"/>
<path class="st3" d="M366.9,420.71c0.61-0.91,1-2.06,2.17-2.41c1.05-0.32,2.32-0.71,2.91,0.62c0.53,1.2-0.78,1.21-1.43,1.67
	c-2.36,1.68-3.14,3.98-2.26,6.73c0.22,0.69,1.65,1.2,0.51,2.02c-1.1,0.79-2.19,0.1-2.81-0.91c-1.21-2-0.65-4.03,0.16-6.02
	C366.39,421.84,366.65,421.28,366.9,420.71z"/>
<path class="st3" d="M450.52,290.78c-0.47,0.02-1.27-0.1-1.36,0.09c-0.44,0.99,0.06,2.97-1.92,2.29c-1.63-0.56-3.66-1.01-4-3.35
	c-0.29-1.97,0.23-3.68,1.5-5.15c0.2-0.24,1.05-0.22,1.36,0c0.96,0.69,0.24,1.5,0.02,2.3c-0.77,2.84,0.77,4.57,3.78,4.29
	c0.07-0.01,0.11-0.45,0.16-0.69C450.21,290.64,450.36,290.72,450.52,290.78z"/>
<path class="st3" d="M397.18,424.79c1.51-1.36,1.85-3.74,4.18-3.97c1.16-0.11,2.34,0.13,2.77,1.3c0.39,1.06-0.69,1.36-1.4,1.82
	c-1.22,0.8-2.43,1.62-3.59,2.51c-0.64,0.5-1.1,1.56-2.09,0.76C395.96,426.33,396.79,425.47,397.18,424.79z"/>
<path class="st3" d="M450.52,290.78c-0.16-0.06-0.31-0.13-0.46-0.22c-0.85-2.86,1.64-7.55,4.31-8.05c0.43-0.08,0.98,0.03,1.36,0.24
	c0.47,0.27,0.61,0.98,0.22,1.26C453.5,285.76,453.06,289.11,450.52,290.78z"/>
<path class="st3" d="M336.53,501.08c-0.46,1.04-0.21,2.4-1.52,2.04c-1.12-0.31-1.18-1.56-1-2.5c0.32-1.73,1.11-3.43,2.81-4.05
	c1.1-0.4,2.85-1.53,3.67,0.02c0.85,1.6-0.99,1.93-2.06,2.34C337.21,499.39,336.88,500.45,336.53,501.08z"/>
<path class="st3" d="M295.09,508.51c-0.45,0.65-1.04,0.71-1.66,0.72c-1.91,0.01-3.61,0.53-4.79,2.13c-0.5,0.68-1.12,1.13-1.78,0.63
	c-0.33-0.25-0.37-1.12-0.27-1.67c0.41-2.21,5.52-4.49,7.58-3.43C294.85,507.24,295.35,507.71,295.09,508.51z"/>
<path class="st3" d="M449.65,320.29c-1.16,0.63-0.86,3.38-2.65,2.26c-1.85-1.16,0.01-2.83,0.67-4.05c0.54-1,1.29-3.13,2.8-1.96
	C452.05,317.75,449.91,319.02,449.65,320.29z"/>
<path class="st3" d="M366.16,473.45c-1.53-1.37-1.08-3.07-0.54-4.7c0.28-0.86,0.99-1.57,1.97-0.95c2.3,1.44-0.23,3.29,0.3,4.99
	C368.14,473.63,366.99,473.67,366.16,473.45z"/>
<path class="st3" d="M337.05,448.82c0.78-0.71,0.98-2.56,2.66-1.55c1.4,0.84,0.19,1.93,0.01,2.87c-0.28,1.43-1.5,1.63-2.5,1.16
	C336.03,450.75,336.6,449.7,337.05,448.82z"/>
<path class="st3" d="M403.66,345.5c1.23,1.25-0.36,2.41-0.17,3.68c0.14,0.97-1.01,0.9-1.61,0.48c-1.11-0.79-1.45-1.89-0.67-3.13
	C401.77,345.64,402.51,345.13,403.66,345.5z"/>
<path class="st3" d="M347.27,484.67c-0.99,1.39-2.13,2.51-4,1.99c-0.65-0.18-1.07-1.06-0.46-1.39c1.45-0.77,2.41-2.72,4.4-2.16
	C347.98,483.32,347.48,484.13,347.27,484.67z"/>
<path class="st3" d="M435.15,204.5c-0.97-0.83-1.71-1.76-1.12-3.12c0.39-0.89,1.53-1.53,1.95-0.85c0.63,1.04,0.73,2.51,0.72,3.79
	C436.69,204.82,435.74,204.85,435.15,204.5z"/>
<path class="st0" d="M423.7,429.93c-1.06-3.18-1.31-6.72,0.96-9.31c1.47-1.68,3.34-5.15,6.12-3.33"/>
<path class="st3" d="M247.58,526.5c-2.92-0.89-7.26-6.16-6.49-7.82c0.26-0.56,1.44,3.38,2.52,3.8"/>
<path class="st3" d="M431.17,391.24c-0.37,3.22-1.24,6.13-4.83,6.97c-1.24,0.29-2.76-0.79-2.04-1.9"/>
<path id="SVGID_x5F_1_x5F_" class="st4" d="M164.12,389.88c-0.91-14.94-13.19-67.24-5.72-88.58c13.1-37.42,4.59-29.87,19.49-51.52
	c21.74-31.58,19.47-27.1,24.49-31.55c5.15-4.56-2.11,2.96,16.4-12.89c35.35-30.26,81.61-39.41,97.53-38.93
	c91.08,2.71,102.17,31.68,102.17,31.68c39.56,55.09-0.73-13.71,15.82-9.48"/>
<text><textPath  xlink:href="#SVGID_x5F_1_x5F_" startOffset="1.8115%">
<tspan  class="st3" style="font-family:'Calder-Dark'; font-size:25.4134px;">E T H D E N V E R_2 0 2 2</tspan><tspan  class="st3" style="font-family:'Calder-Dark'; font-size:15.248px;"> consectetuer adipiscing elit, </tspan></textPath>
</text>
</svg>
